<?xml version="1.0" encoding="utf-8"?>
<svg width="92.4938mm" height="100mm" version="1.1" style="shape-rendering:geometricPrecision; text-rendering:geometricPrecision; image-rendering:optimizeQuality; fill-rule:evenodd; clip-rule:evenodd" viewBox="0 0 1170.82 1265.83" xmlns="http://www.w3.org/2000/svg">
  <defs>
    <style type="text/css">
   
    .fil0 {fill:#B93037;fill-rule:nonzero}
    .fil1 {fill:#D33139;fill-rule:nonzero}
    .fil2 {fill:#F4F4F4;fill-rule:nonzero}
   
  </style>
  </defs>
  <g id="Layer_x0020_2">
    <g id="XMLID_11_">
      <path id="XMLID_14_" class="fil0" d="M 585.41 0 C 336.537 191.449 382.516 1073.325 585.41 1265.83 L 1082.4 988.5 L 1170.82 212.53 L 585.41 0 Z" style="fill: rgb(195, 0, 47);"/>
      <polygon id="XMLID_12_" class="fil1" points="87.86,988.5 585.41,1265.83 585.41,0 -0,212.53 " style="fill: rgb(221, 0, 49);"/>
    </g>
    <path id="XMLID_153_" class="fil2" d="M 759.39 803.47 C 734.68 800.73 710.51 797.42 685.8 794.14 C 674.82 792.49 673.73 792.49 674.82 780.96 C 675.93 766.67 673.17 755.14 662.2 745.81 C 659.44 743.07 657.81 738.13 657.24 733.74 C 655.04 715.6 657.8 698.59 662.2 681.01 C 669.88 650.8 670.97 620.6 657.24 590.94 C 652.85 581.61 652.3 570.62 651.76 560.2 C 651.22 542.06 651.22 523.4 651.76 505.28 C 651.76 499.78 651.76 493.75 653.41 488.81 C 658.35 476.17 659.44 463.54 655.04 450.36 C 653.41 444.88 652.84 439.38 650.65 433.89 C 647.36 426.21 649.56 421.25 657.8 418.51 C 666.59 415.22 671.53 408.63 672.07 399.28 C 673.18 388.86 674.81 378.96 676.46 369.09 C 679.76 349.32 679.2 329.55 666.02 313.08 C 657.23 302.1 649.01 290 638.57 280.13 C 628.69 270.8 624.84 260.36 627.04 247.74 C 629.24 235.1 632.52 222.47 635.28 209.85 C 639.11 192.82 628.69 178.53 611.66 180.18 C 601.22 180.72 591.34 185.12 581.47 188.42 C 575.97 190.07 573.77 193.36 574.32 199.4 C 575.43 213.67 575.43 227.96 575.97 242.23 C 575.97 248.82 574.88 255.96 580.91 260.91 C 582.02 262 582.02 265.3 581.47 267.5 C 579.27 280.66 570.49 287.25 558.94 291.1 C 547.96 294.95 539.73 301 535.34 311.42 C 534.23 314.18 532.04 316.36 529.84 319.12 C 523.81 310.88 518.31 303.2 512.83 295.5 C 509.52 291.11 505.13 286.71 499.1 290.56 C 494.14 293.85 490.86 292.76 486.46 289.45 C 478.22 283.42 472.73 285.06 468.89 294.41 C 467.8 296.61 467.24 298.8 466.69 301 C 467.23 301 468.34 301 468.89 301 C 469.98 304.83 470.54 308.14 471.63 311.98 C 472.74 316.92 473.28 321.86 475.48 326.25 C 480.96 336.69 478.77 350.96 471.09 359.2 C 467.79 362.49 466.7 367.43 463.95 373.47 C 477.68 374.58 488.66 374.58 500.19 375.67 C 504.58 376.21 509.52 378.41 513.37 381.17 C 524.35 388.85 534.23 398.18 545.76 404.77 C 556.2 410.82 560.05 413.01 558.94 425.09 C 558.39 437.73 556.74 450.91 554.55 463.55 C 550.72 482.76 545.22 500.88 545.76 520.65 C 546.87 544.82 546.87 568.44 547.41 592.6 C 547.41 600.28 547.41 607.96 546.32 615.66 C 544.67 631.58 542.47 647.51 540.82 663.99 C 539.17 679.37 537.53 694.75 536.43 709.56 C 535.34 724.94 526.01 732.07 512.83 737.01 C 505.13 739.77 498.54 744.71 491.4 747.99 C 491.95 748.55 493.05 749.1 493.6 749.64 C 494.14 754.58 495.25 759.54 495.8 764.47 C 495.8 769.95 495.26 775.45 494.69 780.39 C 493.6 793.57 493.6 793.57 480.96 795.22 C 459.55 798.51 438.67 801.81 417.27 805.1 C 410.68 806.21 406.29 808.95 406.29 816.63 C 406.29 825.42 406.29 834.2 405.73 843.56 C 405.73 848.5 407.93 850.13 412.88 851.24 C 427.15 852.89 440.88 855.09 455.17 857.83 C 458.46 858.37 461.76 860.03 463.94 862.77 C 471.09 871.56 477.12 880.89 484.27 890.22 C 489.75 897.37 491.95 905.05 491.95 914.39 L 489.66 1019.12 L 585.05 1074.21 L 585.38 1074.21 L 680.5 1020.65 C 679.54 985.92 678.68 951.11 677.56 916.05 C 677.56 907.26 679.76 899.58 685.26 892.99 C 691.85 884.75 698.99 876.5 703.92 867.72 C 709.42 857.84 717.1 855.65 726.98 855.1 C 740.16 853.99 753.34 852.34 768.18 850.71 C 768.18 836.97 768.18 824.89 768.18 812.82 C 766.53 806.21 764.89 804.56 759.39 803.47 Z M 499.08 354.79 C 493.05 355.9 487.55 356.99 481.5 358.09 C 480.96 356.98 480.41 355.89 479.87 355.35 C 483.16 351.5 485.9 347.65 490.29 341.61 C 494.14 344.92 497.44 348.2 500.73 350.96 C 500.73 352.05 499.64 353.7 499.08 354.79 Z M 504.58 353.7 C 505.12 353.16 505.12 352.59 505.67 352.05 C 510.61 353.7 516.11 355.9 522.7 358.1 C 522.7 347.12 506.78 337.78 523.25 330.08 C 531.49 332.82 534.78 338.32 533.69 347.66 C 533.15 354.8 534.23 361.93 534.78 371.83 C 523.25 365.24 513.92 359.76 504.59 353.71 L 504.58 353.7 Z M 592.44 728.77 C 580.91 728.77 568.84 729.88 555.66 730.97 C 556.2 726.03 556.2 721.09 557.86 716.7 C 565 696.38 572.68 676.07 579.81 655.19 C 580.92 651.9 582.01 648.05 582.01 644.21 C 582.01 634.33 580.92 624.44 581.47 614.56 C 582.01 602.49 584.21 590.39 585.86 578.32 C 586.97 578.32 588.6 578.32 589.71 578.32 C 590.8 597.53 591.91 616.21 593.56 635.42 C 595.74 663.44 598.5 691.45 601.24 718.9 C 602.35 726.04 600.15 728.78 592.45 728.78 L 592.44 728.77 Z M 628.68 724.38 C 627.59 728.23 627.05 732.08 621 731.53 C 615.52 730.42 616.06 726.57 616.06 723.29 C 614.95 680.46 613.32 637.61 612.21 595.32 C 612.21 589.84 612.21 584.34 612.21 579.4 C 627.04 598.08 628.13 620.6 631.44 642.57 C 636.38 669.48 638.03 696.93 628.68 724.38 Z"/>
  </g>
</svg>