<svg width="1500" height="1500" xmlns="http://www.w3.org/2000/svg" clip-rule="evenodd" version="1.1">

 <g>
  <title>Layer 1</title>
  <g id="Layer_x0020_2">
   <g id="XMLID_11_">
    <path fill-rule="nonzero" fill="#c3002f" d="m750.00003,117.08502c-248.873,191.449 -202.894,1073.325 0,1265.83l496.99,-277.33l88.42,-775.97l-585.41,-212.53z" class="fil0" id="XMLID_14_"/>
    <polygon fill-rule="nonzero" fill="#dd0031" points="252.4500274658203,1105.5850219726562 750,1382.9149780273438 750,117.08502197265625 164.59002685546875,329.6150207519531 " class="fil1" id="XMLID_12_"/>
   </g>
   <path fill-rule="nonzero" fill="#F4F4F4" d="m923.98003,920.55502c-24.71,-2.74 -48.88,-6.05 -73.59,-9.33c-10.98,-1.65 -12.07,-1.65 -10.98,-13.18c1.11,-14.29 -1.65,-25.82 -12.62,-35.15c-2.76,-2.74 -4.39,-7.68 -4.96,-12.07c-2.2,-18.14 0.56,-35.15 4.96,-52.73c7.68,-30.21 8.77,-60.41 -4.96,-90.07c-4.39,-9.33 -4.94,-20.32 -5.48,-30.74c-0.54,-18.14 -0.54,-36.8 0,-54.92c0,-5.5 0,-11.53 1.65,-16.47c4.94,-12.64 6.03,-25.27 1.63,-38.45c-1.63,-5.48 -2.2,-10.98 -4.39,-16.47c-3.29,-7.68 -1.09,-12.64 7.15,-15.38c8.79,-3.29 13.73,-9.88 14.27,-19.23c1.11,-10.42 2.74,-20.32 4.39,-30.19c3.3,-19.77 2.74,-39.54 -10.44,-56.01c-8.79,-10.98 -17.01,-23.08 -27.45,-32.95c-9.88,-9.33 -13.73,-19.77 -11.53,-32.39c2.2,-12.64 5.48,-25.27 8.24,-37.89c3.83,-17.03 -6.59,-31.32 -23.62,-29.67c-10.44,0.54 -20.32,4.94 -30.19,8.24c-5.5,1.65 -7.7,4.94 -7.15,10.98c1.11,14.27 1.11,28.56 1.65,42.83c0,6.59 -1.09,13.73 4.94,18.68c1.11,1.09 1.11,4.39 0.56,6.59c-2.2,13.16 -10.98,19.75 -22.53,23.6c-10.98,3.85 -19.21,9.9 -23.6,20.32c-1.11,2.76 -3.3,4.94 -5.5,7.7c-6.03,-8.24 -11.53,-15.92 -17.01,-23.62c-3.31,-4.39 -7.7,-8.79 -13.73,-4.94c-4.96,3.29 -8.24,2.2 -12.64,-1.11c-8.24,-6.03 -13.73,-4.39 -17.57,4.96c-1.09,2.2 -1.65,4.39 -2.2,6.59c0.54,0 1.65,0 2.2,0c1.09,3.83 1.65,7.14 2.74,10.98c1.11,4.94 1.65,9.88 3.85,14.27c5.48,10.44 3.29,24.71 -4.39,32.95c-3.3,3.29 -4.39,8.23 -7.14,14.27c13.73,1.11 24.71,1.11 36.24,2.2c4.39,0.54 9.33,2.74 13.18,5.5c10.98,7.68 20.86,17.01 32.39,23.6c10.44,6.05 14.29,8.24 13.18,20.32c-0.55,12.64 -2.2,25.82 -4.39,38.46c-3.83,19.21 -9.33,37.33 -8.79,57.1c1.11,24.17 1.11,47.79 1.65,71.95c0,7.68 0,15.36 -1.09,23.06c-1.65,15.92 -3.85,31.85 -5.5,48.33c-1.65,15.38 -3.29,30.76 -4.39,45.57c-1.09,15.38 -10.42,22.51 -23.6,27.45c-7.7,2.76 -14.29,7.7 -21.43,10.98c0.55,0.56 1.65,1.11 2.2,1.65c0.54,4.94 1.65,9.9 2.2,14.83c0,5.48 -0.54,10.98 -1.11,15.92c-1.09,13.18 -1.09,13.18 -13.73,14.83c-21.41,3.29 -42.29,6.59 -63.69,9.88c-6.59,1.11 -10.98,3.85 -10.98,11.53c0,8.79 0,17.57 -0.56,26.93c0,4.94 2.2,6.57 7.15,7.68c14.27,1.65 28,3.85 42.29,6.59c3.29,0.54 6.59,2.2 8.77,4.94c7.15,8.79 13.18,18.12 20.33,27.45c5.48,7.15 7.68,14.83 7.68,24.17l-2.29,104.73l95.39,55.09l0.33,0l95.12,-53.56c-0.96,-34.73 -1.82,-69.54 -2.94,-104.6c0,-8.79 2.2,-16.47 7.7,-23.06c6.59,-8.24 13.73,-16.49 18.66,-25.27c5.5,-9.88 13.18,-12.07 23.06,-12.62c13.18,-1.11 26.36,-2.76 41.2,-4.39c0,-13.74 0,-25.82 0,-37.89c-1.65,-6.61 -3.29,-8.26 -8.79,-9.35zm-260.31,-448.68c-6.03,1.11 -11.53,2.2 -17.58,3.3c-0.54,-1.11 -1.09,-2.2 -1.63,-2.74c3.29,-3.85 6.03,-7.7 10.42,-13.74c3.85,3.31 7.15,6.59 10.44,9.35c0,1.09 -1.09,2.74 -1.65,3.83zm5.5,-1.09c0.54,-0.54 0.54,-1.11 1.09,-1.65c4.94,1.65 10.44,3.85 17.03,6.05c0,-10.98 -15.92,-20.32 0.55,-28.02c8.24,2.74 11.53,8.24 10.44,17.58c-0.54,7.14 0.54,14.27 1.09,24.17c-11.53,-6.59 -20.86,-12.07 -30.19,-18.12l-0.01,-0.01zm87.86,375.07c-11.53,0 -23.6,1.11 -36.78,2.2c0.54,-4.94 0.54,-9.88 2.2,-14.27c7.14,-20.32 14.82,-40.63 21.95,-61.51c1.11,-3.29 2.2,-7.14 2.2,-10.98c0,-9.88 -1.09,-19.77 -0.54,-29.65c0.54,-12.07 2.74,-24.17 4.39,-36.24c1.11,0 2.74,0 3.85,0c1.09,19.21 2.2,37.89 3.85,57.1c2.18,28.02 4.94,56.03 7.68,83.48c1.11,7.14 -1.09,9.88 -8.79,9.88l-0.01,-0.01zm36.24,-4.39c-1.09,3.85 -1.63,7.7 -7.68,7.15c-5.48,-1.11 -4.94,-4.96 -4.94,-8.24c-1.11,-42.83 -2.74,-85.68 -3.85,-127.97c0,-5.48 0,-10.98 0,-15.92c14.83,18.68 15.92,41.2 19.23,63.17c4.94,26.91 6.59,54.36 -2.76,81.81z" class="fil2" id="XMLID_153_"/>
  </g>
 </g>
</svg>