<svg width="1086" height="1257" xmlns="http://www.w3.org/2000/svg" xml:space="preserve" version="1.1">
 <defs>
  <linearGradient y2="0.72588" x2="0.98043" y1="0.24513" x1="-0.00388" id="XMLID_4_">
   <stop stop-color="#DC2626" offset="0"/>
   <stop stop-color="#EC4899" offset="0.5484"/>
   <stop stop-color="#9333EA" offset="1"/>
  </linearGradient>
  <linearGradient y2="0.50067" x2="0.99986" y1="0.50067" x1="-0.00005" id="XMLID_6_">
   <stop stop-color="#DC2626" offset="0"/>
   <stop stop-color="#EC4899" offset="0.5484"/>
   <stop stop-color="#9333EA" offset="1"/>
  </linearGradient>
 </defs>
 <g>
  <title>Layer 1</title>
  <g id="svg_1">
   <path fill="url(#XMLID_4_)" d="m626.50001,735.9l0,-103l28.2,-33.1l47,-6.8l0,-38.1l-77.2,-14.5l0,-33.2l-8.6,-11.5l-3,0l-2.4,-9.7l9.4,-60.7l-4.7,-39.7l-8,-32.7l0.6,-76.2l3.4,-23.9l-5.9,-25.3l0,-9.7l17,-13l6.3,-59.7l-1.3,-16.3l-39.9,-43.4l-6.1,-16.9l11,-46.1l-11,-22.4l-50.2,11.7l5.8,5.7l1.7,47.2l4.3,7.9l-4.5,17.4l-30.6,18.9l-6.3,63.9l-26.1,-16.4l1.3,-2.1l15.3,5.4l-6.1,-16.3l6.6,-8.8l9,8.6l-3.1,-18.4l-19.9,-27.3l-12.7,3.5l-11.8,-5.7l-6.5,1.5l-4.4,7.4l-5.9,4.5l6.6,-0.2l4.4,18.7l4.1,12.5l-2.5,14.9l-4.4,6.6l-1.8,0.3l-5.6,11.9l36.4,2.9l49.2,33.7l-12.2,97.7l0.4,82.8l-10.3,91.8l-19.1,13.6l-17,0l-8.6,11.5l0,33.2l-77.2,14.5l0,38.1l47,6.8l28.2,33.1l0,103.3l-167.8,-110.2l0,1.5l-73.5,-251.5l30.3,280.5l295.9,161.2l0,0.8l0.7,-0.4l0.7,0.4l0,-0.8l295.9,-161.2l30.7,-284.9l-74,254.3l-167.2,109.9zm-155.2,-579.6l-16.3,3.1l-1.3,-2.2l9.3,-12.3l9.4,8.4l-1.1,3zm116.5,255.4l4,37.4l-5.8,45.3l0.1,1.4l-9.1,0l-6,-137.8l16.8,53.7zm-66.8,74.4l22.9,-70l6.9,-59.1l10,138.8l-20.1,0l-20.1,0l0.4,-9.7zm315.3,-253.4l-183.8,-117.9l234.2,81.3l-92.7,379l42.3,-342.4zm-548,342.4l-93.7,-375.1l-0.4,-3.9l234.6,-81.4l-184.1,118l43.6,342.4z" class="st0" id="XMLID_5_"/>
   <path fill="url(#XMLID_6_)" d="m112.30001,1048.5l-54,0l-9.5,24.8l-48.8,0l62.2,-142.2l47.1,0l62.2,142.2l-49.6,0l-9.6,-24.8zm-13.2,-34.5l-13.8,-35.8l-13.8,35.8l27.6,0zm220.2,-82.9l0,142.2l-39.4,0l-54,-64.6l0,64.6l-46.7,0l0,-142.2l39.4,0l54,64.6l0,-64.6l46.7,0zm117.2,67.2l41.6,0l0,60.1c-17.3,11.8 -41,18.1 -62,18.1c-45.9,0 -79.4,-30.7 -79.4,-74.4c0,-43.7 33.5,-74.4 80.4,-74.4c28,0 50.6,9.8 65,27.4l-30.7,27c-8.9,-10.4 -19.3,-15.6 -31.9,-15.6c-21.1,0 -34.5,13.6 -34.5,35.6c0,21.3 13.4,35.6 33.9,35.6c5.9,0 11.6,-1 17.5,-3.5l0,-35.9l0.1,0zm61,11l0,-78.2l47.9,0l0,76.8c0,21.7 8.3,29.9 21.7,29.9c13.4,0 21.7,-8.1 21.7,-29.9l0,-76.8l47.1,0l0,78.2c0,42.7 -25.6,67.2 -69.3,67.2s-69.1,-24.5 -69.1,-67.2zm160.5,-78.2l47.9,0l0,105l64.2,0l0,37.2l-112.1,0l0,-142.2zm224.3,117.4l-54,0l-9.5,24.8l-48.8,0l62.2,-142.2l47.1,0l62.2,142.2l-49.6,0l-9.6,-24.8zm-13.2,-34.5l-13.8,-35.8l-13.8,35.8l27.6,0zm141,23.5l-13,0l0,35.8l-47.9,0l0,-142.2l68.5,0c39.6,0 64.8,20.7 64.8,53.6c0,20.5 -9.8,36 -26.8,44.7l29.9,43.9l-51.2,0l-24.3,-35.8zm4.5,-69.4l-17.5,0l0,33.3l17.5,0c13.2,0 19.5,-6.3 19.5,-16.7c0,-10.3 -6.3,-16.6 -19.5,-16.6z" class="st1" id="XMLID_3_"/>
   <g id="XMLID_1_">
    <path id="svg_2" fill="#191919" d="m122.60001,1218.4c0,23 -18.1,36.5 -52.6,36.5l-66.8,0l0,-134.5l63,0c32.3,0 49.6,13.6 49.6,35c0,13.8 -6.9,24 -17.3,29.6c14.3,4.6 24.1,15.9 24.1,33.4zm-94.5,-78.4l0,37.1l35.3,0c17.3,0 27.1,-6.1 27.1,-18.4c0,-12.5 -9.8,-18.6 -27.1,-18.6l-35.3,0l0,-0.1zm69.3,75.9c0,-13.4 -10.2,-19.4 -29,-19.4l-40.3,0l0,38.8l40.3,0c18.9,0 29,-6 29,-19.4z" class="st2"/>
    <path id="svg_3" fill="#191919" d="m250.10001,1233.9l0,20.9l-100.8,0l0,-134.4l98.2,0l0,20.9l-73.2,0l0,35l64.9,0l0,20.6l-64.9,0l0,37.1l75.8,0l0,-0.1z" class="st2"/>
    <path id="svg_4" fill="#191919" d="m278.00001,1120.4l25,0l0,113.3l70.3,0l0,21.1l-95.3,0l0,-134.4z" class="st2"/>
    <path id="svg_5" fill="#191919" d="m482.40001,1186.1l23.6,0l0,53.6c-14,11.3 -33.6,17.1 -52.6,17.1c-41.7,0 -72.4,-29 -72.4,-69.1s30.7,-69.2 72.8,-69.2c22.5,0 41.3,7.5 54,21.9l-15.8,15.4c-10.6,-10.6 -22.7,-15.4 -37.1,-15.4c-28.6,0 -48.8,19.4 -48.8,47.3c0,27.3 20.2,47.3 48.6,47.3c9.6,0 19,-1.9 27.7,-6.9l0,-42z" class="st2"/>
    <path id="svg_6" fill="#191919" d="m626.80001,1254.9l-27.5,-39.4c-1.7,0.2 -3.5,0.2 -5.2,0.2l-30.3,0l0,39.2l-25,0l0,-134.5l55.3,0c35.3,0 57.2,18.1 57.2,47.8c0,20.4 -10.4,35.3 -28.6,42.4l30.9,44.2l-26.8,0l0,0.1zm-33.8,-113.4l-29.2,0l0,53.6l29.2,0c21.9,0 33.2,-10 33.2,-26.9c0,-16.9 -11.3,-26.7 -33.2,-26.7z" class="st2"/>
    <path id="svg_7" fill="#191919" d="m766.50001,1223.7l-67.2,0l-13.3,31.1l-25.7,0l60.4,-134.4l24.6,0l60.7,134.5l-26.1,0l-13.4,-31.2zm-8.3,-19.5l-25.4,-58.8l-25.2,58.8l50.6,0z" class="st2"/>
    <path id="svg_8" fill="#191919" d="m823.10001,1120.4l58.8,0c43.6,0 73.4,26.9 73.4,67.2c0,40.3 -29.8,67.2 -73.4,67.2l-58.8,0l0,-134.4zm57.7,113.3c30,0 49.4,-18.2 49.4,-46.1s-19.4,-46.1 -49.4,-46.1l-32.7,0l0,92.2l32.7,0z" class="st2"/>
    <path id="svg_9" fill="#191919" d="m1082.60001,1233.9l0,20.9l-100.8,0l0,-134.4l98.2,0l0,20.9l-73.2,0l0,35l64.9,0l0,20.6l-64.9,0l0,37.1l75.8,0l0,-0.1z" class="st2"/>
   </g>
  </g>
 </g>
</svg>